<svg width="200" height="40" viewBox="0 0 200 40" fill="none" xmlns="http://www.w3.org/2000/svg">
  <g>
    <!-- Owl icon -->
    <path d="M20 8c-2.5 0-4.5 2-4.5 4.5s2 4.5 4.5 4.5 4.5-2 4.5-4.5S22.5 8 20 8zm0 7c-1.4 0-2.5-1.1-2.5-2.5S18.6 10 20 10s2.5 1.1 2.5 2.5S21.4 15 20 15z" fill="#FF6B00"/>
    <path d="M30 8c-2.5 0-4.5 2-4.5 4.5s2 4.5 4.5 4.5 4.5-2 4.5-4.5S32.5 8 30 8zm0 7c-1.4 0-2.5-1.1-2.5-2.5S28.6 10 30 10s2.5 1.1 2.5 2.5S31.4 15 30 15z" fill="#FF6B00"/>
    <path d="M25 18l-5 5 5 5 5-5-5-5z" fill="#FF6B00"/>
  </g>
  <!-- Text "repense" -->
  <text x="60" y="25" font-family="Arial" font-size="24" font-weight="bold" fill="#FF6B00">repense</text>
</svg> 